<svg xmlns="http://www.w3.org/2000/svg" viewBox="0 0 655.408 232.563"><path d="M322.084 65.362c-6.91-6.257-16.643-9.43-28.925-9.43l-22.067.114h-15.684l.01 2.096a11.01 11.01 0 0 0 9.512 10.507l.326 56.504a4.271 4.271 0 0 0 4.35 4.139l23.612-.122c12.459-.062 22.278-3.35 29.182-9.775 6.95-6.461 10.44-15.594 10.37-27.145-.066-11.479-3.661-20.525-10.686-26.888Zm-4.522 26.967c.046 8.08-2.013 14.207-6.12 18.208-4.127 4.02-10.492 6.08-18.919 6.124l-12.418.063-.278-48.21 12.692-.066c16.526.002 24.952 8.037 25.043 23.881Z" style="fill:#03272d"/><path d="m436.64 57.936-17.356 48.454-17.926-48.214a4.305 4.305 0 0 0-4.014-2.739l-4.792-.034a4.288 4.288 0 0 0-4.053 2.762l-17.633 48.204-17.637-48.017a4.307 4.307 0 0 0-4.07-2.753l-12.358.064 26.884 70.37a4.333 4.333 0 0 0 4.064 2.715l5.803-.03a4.311 4.311 0 0 0 4.037-2.759l17.257-46.785 17.702 46.607a4.333 4.333 0 0 0 4.068 2.719l5.799-.03a4.31 4.31 0 0 0 4.036-2.75l26.177-70.638-11.934.058a4.314 4.314 0 0 0-4.054 2.796ZM478.349 115.82l-.11-18.722 35.275-.178-.075-12.317-35.27.179-.102-17.559 37.347-.185-.072-12.323-47.864.24a4.333 4.333 0 0 0-2.998 1.205 4.005 4.005 0 0 0-1.257 2.933l.376 65.009a4.22 4.22 0 0 0 4.299 4.09l47.867-.24-.067-12.319ZM578.054 115.09l-24.927.124-.338-58.632-.005-2.093-10.593.057a4.365 4.365 0 0 0-3 1.187 4.023 4.023 0 0 0-1.286 2.975l.376 64.942a4.037 4.037 0 0 0 1.325 2.975 4.415 4.415 0 0 0 3.014 1.157l46.47-.233-.006-2.088c-.035-5.719-4.982-10.372-11.03-10.372ZM644.308 114.7l-24.867.123-.35-60.723-10.593.054a4.385 4.385 0 0 0-2.993 1.186 4.019 4.019 0 0 0-1.287 2.98l.375 64.94a4.057 4.057 0 0 0 1.325 2.976 4.425 4.425 0 0 0 3.015 1.155l46.475-.234-.013-2.086c-.031-5.719-5.003-10.372-11.087-10.372Z" style="fill:#03272d"/><path d="M279.499 171.507a8.989 8.989 0 0 1-5.465 1.843c-4.74 0-7.924-3.24-7.924-8.062s2.991-8.061 7.443-8.061a8.719 8.719 0 0 1 5.212 1.549l.336.224 2.263-3.743-.235-.214a11.305 11.305 0 0 0-7.576-2.54c-7.585 0-12.682 5.138-12.682 12.785s5.138 12.785 12.785 12.785c3.183 0 6.388-1.14 7.976-2.836l.185-.198-1.95-3.816ZM298.282 152.504c-7.467 0-12.887 5.376-12.887 12.784 0 7.528 5.3 12.785 12.887 12.785 7.488 0 12.923-5.377 12.923-12.785 0-7.527-5.314-12.785-12.923-12.785Zm0 20.846a7.78 7.78 0 0 1-7.65-8.062c0-4.67 3.218-8.061 7.65-8.061 4.453 0 7.684 3.39 7.684 8.061 0 4.822-3.088 8.062-7.684 8.062ZM329.117 163.833l-8.004-10.952h-4.842v24.815h4.998v-16.468l7.074 9.771h1.015l7.004-9.856v16.553h4.964v-24.815h-4.573l-7.636 10.952zM361.024 163.833l-8.004-10.952h-4.842v24.815h4.998v-16.468l7.074 9.771h1.016l7.003-9.856v16.553h4.964v-24.815h-4.573l-7.636 10.952zM395.334 166.49c0 4.552-1.673 6.86-4.971 6.86-2.565 0-5.623-1.238-5.623-7.135v-13.334h-4.998v14.228c0 6.865 3.97 10.964 10.62 10.964a9.83 9.83 0 0 0 6.934-2.519c1.992-1.889 3.001-4.65 3.001-8.205v-14.468h-4.963ZM423.429 168.881l-12.649-16h-3.939v24.815h4.723v-15.935l12.649 15.935h3.939v-24.815h-4.723v16zM435.519 152.881h4.998v24.814h-4.998zM446.269 157.604h7.796v20.092h4.998v-20.092h7.796v-4.723h-20.59v4.723zM481.48 162.57l-5.754-9.689h-5.714l8.782 14.507v10.308h4.998v-10.307l8.854-14.508h-5.478l-5.688 9.689zM523.868 171.507a8.989 8.989 0 0 1-5.465 1.843c-4.74 0-7.924-3.24-7.924-8.062s2.991-8.061 7.444-8.061a8.719 8.719 0 0 1 5.211 1.549l.337.224 2.262-3.743-.234-.214a11.304 11.304 0 0 0-7.576-2.54c-7.586 0-12.682 5.138-12.682 12.785s5.138 12.785 12.785 12.785c3.182 0 6.387-1.14 7.975-2.836l.186-.198-1.95-3.816ZM547.073 162.704h-10.216v-9.823h-4.998v24.815h4.998v-10.269h10.216v10.269h4.964v-24.815h-4.964v9.823zM574.48 166.49c0 4.552-1.672 6.86-4.97 6.86-2.565 0-5.623-1.238-5.623-7.135v-13.334h-4.998v14.228c0 6.865 3.97 10.964 10.621 10.964a9.83 9.83 0 0 0 6.933-2.519c1.992-1.889 3.001-4.65 3.001-8.205v-14.468h-4.963ZM602.8 160.618c0-3.561-1.58-7.805-9.11-7.805-.287 0-1.377.012-2.647.026-1.733.019-3.89.043-4.668.043h-.387v24.814h4.998v-8.998h2.371l6.628 8.998h6.096l-7.684-10.036a7.355 7.355 0 0 0 4.403-7.042Zm-11.814-3.025.119-.004c.919-.028 1.712-.053 2.379-.053 2.744 0 4.078 1.02 4.078 3.116 0 2.452-2.271 3.323-4.216 3.323h-2.36ZM626.734 171.507a8.989 8.989 0 0 1-5.465 1.843c-4.74 0-7.924-3.24-7.924-8.062s2.991-8.061 7.443-8.061a8.719 8.719 0 0 1 5.212 1.549l.337.224 2.262-3.743-.235-.214a11.304 11.304 0 0 0-7.576-2.54c-7.585 0-12.682 5.138-12.682 12.785s5.138 12.785 12.785 12.785c3.183 0 6.388-1.14 7.976-2.836l.185-.198-1.95-3.816ZM649.939 152.881v9.823h-10.217v-9.823h-4.998v24.815h4.998v-10.269h10.217v10.269h4.963v-24.815h-4.963z" style="fill:#72db2b"/><path d="M114.833 80.162 87.406 99.46a2.159 2.159 0 0 0-.94 1.783v36.2a1.47 1.47 0 0 0 1.469 1.47h56.662a1.47 1.47 0 0 0 1.47-1.47v-36.228a2.159 2.159 0 0 0-.907-1.757l-27.856-19.271a2.159 2.159 0 0 0-2.47-.025Z" style="fill:#03272d"/><path d="m103.198 33.608-.003-.02-.01.012-.012-.009.003.02c-.4.51-14.652 18.834 3.954 24.963l.002.013.01-.008.012.004-.002-.012c15.802-11.58-3.416-24.603-3.954-24.963ZM78.291 41.697l-.01-.018-.005.014-.014-.004.01.019c-.224.607-8.117 22.439 11.473 22.518l.006.012.007-.011h.013l-.006-.01c11.45-15.896-10.85-22.343-11.474-22.52ZM57.103 57.087l-.015-.014v.015h-.015l.014.015c-.025.647-.784 23.85 17.871 17.871l.01.01.003-.013.012-.004-.009-.009c5.978-18.655-17.224-17.895-17.87-17.87ZM41.708 78.272l-.019-.01.004.014-.014.006.018.01c.177.622 6.624 22.924 22.52 11.473l.01.006v-.013l.011-.007-.011-.005c-.08-19.59-21.912-11.698-22.52-11.474ZM33.612 103.176l-.02-.003.008.013-.012.01.02.003c.36.537 13.383 19.755 24.963 3.953l.012.002-.004-.012.008-.01-.013-.002c-6.13-18.606-24.453-4.354-24.962-3.954ZM33.608 129.364l-.02.003.012.01-.009.012.02-.003c.51.4 18.834 14.653 24.963-3.953l.013-.003-.008-.01.004-.011-.012.002c-11.58-15.802-24.603 3.415-24.963 3.953ZM41.697 154.271l-.018.01.014.005-.004.015.019-.01c.607.224 22.439 8.116 22.518-11.474l.012-.006-.011-.007v-.013l-.01.006c-15.896-11.45-22.343 10.851-22.52 11.474ZM57.087 175.46l-.014.014h.015v.016l.015-.015c.647.025 23.85.785 17.871-17.87l.01-.01-.013-.003-.004-.013-.009.01c-18.655-5.978-17.895 17.224-17.87 17.87ZM78.272 190.855l-.01.019.014-.005.006.015.01-.019c.622-.176 22.924-6.623 11.473-22.519l.006-.01h-.013l-.007-.012-.005.012c-19.59.08-11.698 21.911-11.474 22.519ZM103.176 198.95l-.003.021.013-.008.01.012.003-.02c.537-.36 19.755-13.384 3.953-24.963l.002-.012-.012.004-.01-.008-.002.012c-18.606 6.13-4.354 24.454-3.954 24.963ZM129.364 198.954l.003.02.01-.011.012.008-.003-.02c.4-.509 14.653-18.833-3.953-24.963l-.003-.012-.01.008-.011-.005.002.013c-15.802 11.58 3.415 24.602 3.953 24.962ZM154.271 190.865l.01.019.005-.015.015.005-.01-.019c.224-.607 8.116-22.44-11.474-22.519l-.006-.011-.007.01h-.013l.006.012c-11.45 15.895 10.851 22.342 11.474 22.518ZM175.46 175.475l.014.015v-.015h.016l-.015-.016c.025-.646.785-23.848-17.87-17.87l-.01-.01-.003.013-.013.003.01.01c-5.978 18.655 17.224 17.895 17.87 17.87ZM190.855 154.291l.019.01-.005-.015.015-.005-.019-.01c-.176-.623-6.623-22.924-22.519-11.474l-.01-.006v.013l-.012.007.012.006c.08 19.59 21.911 11.697 22.519 11.474ZM198.95 129.386l.021.003-.008-.012.012-.01-.02-.003c-.36-.538-13.384-19.755-24.963-3.953l-.012-.002.004.012-.008.01.012.002c6.13 18.606 24.454 4.353 24.963 3.953ZM198.954 103.198l.02-.003-.011-.01.008-.012-.02.003c-.509-.4-18.833-14.652-24.963 3.954l-.012.002.008.01-.005.012.013-.002c11.58 15.802 24.602-3.416 24.962-3.954ZM190.865 78.291l.019-.01-.015-.005.005-.014-.019.01c-.607-.224-22.44-8.117-22.519 11.473l-.011.006.01.007v.013l.012-.006c15.895 11.45 22.342-10.85 22.518-11.474ZM175.475 57.103l.015-.015h-.015v-.015l-.016.014c-.646-.025-23.848-.784-17.87 17.871l-.01.01.013.003.003.012.01-.009c18.655 5.978 17.895-17.224 17.87-17.87ZM154.291 41.708l.01-.019-.015.004-.005-.014-.01.018c-.623.177-22.924 6.624-11.474 22.52l-.006.01h.013l.007.011.006-.011c19.59-.08 11.697-21.912 11.474-22.52ZM129.386 33.612l.003-.02-.012.008-.01-.012-.003.02c-.538.36-19.755 13.383-3.953 24.963l-.002.012.012-.004.01.008.002-.013c18.606-6.13 4.353-24.453 3.953-24.962Z" style="fill:#07841b;fill-rule:evenodd"/><path d="M116.297.029V0l-.016.014-.015-.014v.029c-.66.61-24.193 22.651 0 35.102v.018l.015-.01.016.01v-.018c24.192-12.451.66-34.491 0-35.102ZM80.372 5.714l-.009-.028-.01.019-.019-.009.009.028c-.439.784-16.01 29.018 10.847 33.384l.005.016.013-.013.017.004-.005-.017C110.38 19.781 81.188 6.091 80.372 5.714ZM47.962 22.222l-.017-.023-.004.02-.02-.002.016.023c-.174.882-6.258 32.546 20.633 28.399l.01.014.007-.016.018-.003-.01-.014c12.254-24.293-19.74-28.291-20.633-28.398ZM22.24 47.937l-.023-.017.002.021-.02.004.023.017c.106.893 4.105 32.887 28.398 20.633l.014.01.002-.018.016-.007-.014-.01c4.148-26.89-27.516-20.807-28.398-20.633ZM5.723 80.343l-.027-.01.009.02-.019.01.028.009c.377.816 14.066 30.008 33.384 10.847l.017.005-.004-.017.013-.012-.016-.006c-4.366-26.855-32.6-11.285-33.384-10.846ZM.029 116.266H0l.014.015-.014.016h.029c.61.66 22.651 24.192 35.102 0h.018l-.01-.016.01-.015h-.018c-12.451-24.193-34.491-.66-35.102 0ZM5.714 152.19l-.028.01.019.01-.009.019.028-.01c.784.44 29.018 16.01 33.384-10.846l.016-.006-.013-.012.004-.017-.017.005c-19.317-19.16-33.007 10.032-33.384 10.847ZM22.222 184.6l-.023.017.02.004-.002.021.023-.017c.882.175 32.546 6.258 28.399-20.633l.014-.01-.016-.007-.003-.018-.014.01c-24.293-12.253-28.291 19.74-28.398 20.633ZM47.937 210.322l-.017.024.021-.003.004.021.017-.023c.893-.107 32.887-4.105 20.633-28.399l.01-.014-.018-.002-.007-.016-.01.014c-26.89-4.147-20.807 27.516-20.633 28.398ZM80.343 226.84l-.01.027.02-.01.01.02.009-.028c.816-.377 30.008-14.067 10.847-33.385l.005-.016-.017.003-.012-.013-.006.017c-26.855 4.366-11.285 32.6-10.846 33.384ZM116.266 232.534v.029l.015-.015.016.015v-.03c.66-.61 24.192-22.65 0-35.101v-.018l-.016.009-.015-.009v.018c-24.193 12.45-.66 34.49 0 35.102ZM152.19 226.849l.01.027.01-.018.019.009-.01-.028c.44-.785 16.01-29.018-10.846-33.384l-.006-.017-.012.013-.017-.003.005.017c-19.16 19.317 10.032 33.007 10.847 33.384ZM184.6 210.34l.017.024.004-.02.021.002-.017-.024c.175-.882 6.258-32.545-20.633-28.398l-.01-.014-.007.016-.018.002.01.014c-12.253 24.293 19.74 28.292 20.633 28.398ZM210.322 184.625l.024.017-.003-.02.021-.005-.023-.017c-.107-.892-4.105-32.886-28.399-20.632l-.014-.01-.002.017-.016.008.014.01c-4.147 26.89 27.516 20.807 28.398 20.632ZM226.84 152.22l.027.009-.01-.02.02-.01-.028-.008c-.377-.816-14.067-30.008-33.385-10.847l-.016-.006.003.018-.013.012.017.005c4.366 26.856 32.6 11.286 33.384 10.847ZM232.534 116.297h.029l-.015-.016.015-.015h-.03c-.61-.66-22.65-24.193-35.101 0h-.018l.009.015-.009.016h.018c12.45 24.192 34.49.66 35.102 0ZM226.849 80.372l.027-.009-.018-.01.009-.019-.028.009c-.785-.439-29.018-16.01-33.384 10.847l-.017.005.013.013-.003.017.017-.005c19.317 19.16 33.007-10.032 33.384-10.848ZM210.34 47.962l.024-.017-.02-.004.002-.02-.024.016c-.882-.174-32.545-6.258-28.398 20.633l-.014.01.016.007.002.018.014-.01c24.293 12.254 28.292-19.74 28.398-20.633ZM184.625 22.24l.017-.023-.02.002-.005-.02-.017.023c-.892.106-32.886 4.105-20.632 28.398l-.01.014.017.002.008.016.01-.014c26.89 4.148 20.807-27.516 20.632-28.398ZM152.22 5.723l.009-.027-.02.009-.01-.019-.008.028c-.816.377-30.008 14.066-10.847 33.384l-.006.017.018-.004.012.013.005-.016c26.856-4.366 11.286-32.6 10.847-33.384Z" style="fill:#72db2b;fill-rule:evenodd"/></svg>